<svg width="32" height="36" viewBox="0 0 32 36" fill="none" xmlns="http://www.w3.org/2000/svg">
    <path d="M22.6865 0.139526H1.08874C0.487442 0.139526 0 0.557334 0 1.36807V35.2226C0 35.4427 0.487442 35.8605 1.08874 35.8605H30.9113C31.5126 35.8605 32 35.4427 32 35.2226V8.41785C32 7.97389 31.9308 7.83101 31.8087 7.72576L23.1494 0.30346C23.0266 0.198849 22.8599 0.139526 22.6865 0.139526Z" fill="#0D99FF"/>
    <path d="M23.0698 0.251892L23.0342 7.75743H31.8521L23.0698 0.251892Z" fill="#035189"/>
    <path d="M11.6772 20.9966H10.6572V25.5766H9.50719V20.9966H8.85719V20.0666H9.50719V19.6766C9.50719 19.0432 9.67385 18.5832 10.0072 18.2966C10.3472 18.0032 10.8772 17.8566 11.5972 17.8566V18.8066C11.2505 18.8066 11.0072 18.8732 10.8672 19.0066C10.7272 19.1332 10.6572 19.3566 10.6572 19.6766V20.0666H11.6772V20.9966ZM13.2675 19.3366C13.0608 19.3366 12.8875 19.2666 12.7475 19.1266C12.6075 18.9866 12.5375 18.8132 12.5375 18.6066C12.5375 18.3999 12.6075 18.2266 12.7475 18.0866C12.8875 17.9466 13.0608 17.8766 13.2675 17.8766C13.4675 17.8766 13.6375 17.9466 13.7775 18.0866C13.9175 18.2266 13.9875 18.3999 13.9875 18.6066C13.9875 18.8132 13.9175 18.9866 13.7775 19.1266C13.6375 19.2666 13.4675 19.3366 13.2675 19.3366ZM13.8275 20.0666V25.5766H12.6875V20.0666H13.8275ZM16.4642 18.1766V25.5766H15.3242V18.1766H16.4642ZM23.0109 22.6866C23.0109 22.8932 22.9976 23.0799 22.9709 23.2466H18.7609C18.7943 23.6866 18.9576 24.0399 19.2509 24.3066C19.5443 24.5732 19.9043 24.7066 20.3309 24.7066C20.9443 24.7066 21.3776 24.4499 21.6309 23.9366H22.8609C22.6943 24.4432 22.3909 24.8599 21.9509 25.1866C21.5176 25.5066 20.9776 25.6666 20.3309 25.6666C19.8043 25.6666 19.3309 25.5499 18.9109 25.3166C18.4976 25.0766 18.1709 24.7432 17.9309 24.3166C17.6976 23.8832 17.5809 23.3832 17.5809 22.8166C17.5809 22.2499 17.6943 21.7532 17.9209 21.3266C18.1543 20.8932 18.4776 20.5599 18.8909 20.3266C19.3109 20.0932 19.7909 19.9766 20.3309 19.9766C20.8509 19.9766 21.3143 20.0899 21.7209 20.3166C22.1276 20.5432 22.4443 20.8632 22.6709 21.2766C22.8976 21.6832 23.0109 22.1532 23.0109 22.6866ZM21.8209 22.3266C21.8143 21.9066 21.6643 21.5699 21.3709 21.3166C21.0776 21.0632 20.7143 20.9366 20.2809 20.9366C19.8876 20.9366 19.5509 21.0632 19.2709 21.3166C18.9909 21.5632 18.8243 21.8999 18.7709 22.3266H21.8209Z" fill="white"/>
</svg>
