<svg width="32" height="36" viewBox="0 0 32 36" fill="none" xmlns="http://www.w3.org/2000/svg">
    <path d="M22.6865 0.139526H1.08874C0.487442 0.139526 0 0.557334 0 1.36807V35.2226C0 35.4427 0.487442 35.8605 1.08874 35.8605H30.9113C31.5126 35.8605 32 35.4427 32 35.2226V8.41785C32 7.97389 31.9308 7.83101 31.8087 7.72576L23.1494 0.30346C23.0266 0.198849 22.8599 0.139526 22.6865 0.139526Z" fill="#0D99FF"/>
    <path d="M13.5875 20.6966C13.5875 21.0499 13.5042 21.3832 13.3375 21.6966C13.1709 22.0099 12.9042 22.2666 12.5375 22.4666C12.1709 22.6599 11.7009 22.7566 11.1275 22.7566H9.86754V25.5766H8.72754V18.6266H11.1275C11.6609 18.6266 12.1109 18.7199 12.4775 18.9066C12.8509 19.0866 13.1275 19.3332 13.3075 19.6466C13.4942 19.9599 13.5875 20.3099 13.5875 20.6966ZM11.1275 21.8266C11.5609 21.8266 11.8842 21.7299 12.0975 21.5366C12.3109 21.3366 12.4175 21.0566 12.4175 20.6966C12.4175 19.9366 11.9875 19.5566 11.1275 19.5566H9.86754V21.8266H11.1275ZM14.2948 22.7966C14.2948 22.2432 14.4081 21.7532 14.6348 21.3266C14.8681 20.8999 15.1815 20.5699 15.5748 20.3366C15.9748 20.0966 16.4181 19.9766 16.9048 19.9766C17.2648 19.9766 17.6181 20.0566 17.9648 20.2166C18.3181 20.3699 18.5981 20.5766 18.8048 20.8366V18.1766H19.9548V25.5766H18.8048V24.7466C18.6181 25.0132 18.3581 25.2332 18.0248 25.4066C17.6981 25.5799 17.3215 25.6666 16.8948 25.6666C16.4148 25.6666 15.9748 25.5466 15.5748 25.3066C15.1815 25.0599 14.8681 24.7199 14.6348 24.2866C14.4081 23.8466 14.2948 23.3499 14.2948 22.7966ZM18.8048 22.8166C18.8048 22.4366 18.7248 22.1066 18.5648 21.8266C18.4115 21.5466 18.2081 21.3332 17.9548 21.1866C17.7015 21.0399 17.4281 20.9666 17.1348 20.9666C16.8415 20.9666 16.5681 21.0399 16.3148 21.1866C16.0615 21.3266 15.8548 21.5366 15.6948 21.8166C15.5415 22.0899 15.4648 22.4166 15.4648 22.7966C15.4648 23.1766 15.5415 23.5099 15.6948 23.7966C15.8548 24.0832 16.0615 24.3032 16.3148 24.4566C16.5748 24.6032 16.8481 24.6766 17.1348 24.6766C17.4281 24.6766 17.7015 24.6032 17.9548 24.4566C18.2081 24.3099 18.4115 24.0966 18.5648 23.8166C18.7248 23.5299 18.8048 23.1966 18.8048 22.8166ZM23.7621 20.9966H22.7421V25.5766H21.5921V20.9966H20.9421V20.0666H21.5921V19.6766C21.5921 19.0432 21.7588 18.5832 22.0921 18.2966C22.4321 18.0032 22.9621 17.8566 23.6821 17.8566V18.8066C23.3355 18.8066 23.0921 18.8732 22.9521 19.0066C22.8121 19.1332 22.7421 19.3566 22.7421 19.6766V20.0666H23.7621V20.9966Z" fill="white"/>
</svg>
