<svg width="32" height="36" viewBox="0 0 32 36" fill="none" xmlns="http://www.w3.org/2000/svg">
    <path d="M22.6865 0.139526H1.08874C0.487442 0.139526 0 0.557334 0 1.36807V35.2226C0 35.4426 0.487442 35.8605 1.08874 35.8605H30.9113C31.5126 35.8605 32 35.4426 32 35.2226V8.41785C32 7.97389 31.9308 7.83101 31.8087 7.72576L23.1494 0.30346C23.0266 0.198849 22.8599 0.139526 22.6865 0.139526Z" fill="#3DCA81"/>
    <path d="M23.0707 0.251892L23.0352 7.75743H31.853L23.0707 0.251892Z" fill="#2A8D5A"/>
    <path d="M9.63051 22.7866L11.4105 25.5766H10.1205L8.93051 23.7066L7.81051 25.5766H6.62051L8.40051 22.8666L6.62051 20.0666H7.91051L9.10051 21.9366L10.2205 20.0666H11.4105L9.63051 22.7866ZM13.4007 18.1766V25.5766H12.2607V18.1766H13.4007ZM16.8975 25.6666C16.4641 25.6666 16.0741 25.5899 15.7275 25.4366C15.3875 25.2766 15.1175 25.0632 14.9175 24.7966C14.7175 24.5232 14.6108 24.2199 14.5975 23.8866H15.7775C15.7975 24.1199 15.9075 24.3166 16.1075 24.4766C16.3141 24.6299 16.5708 24.7066 16.8775 24.7066C17.1975 24.7066 17.4441 24.6466 17.6175 24.5266C17.7975 24.3999 17.8875 24.2399 17.8875 24.0466C17.8875 23.8399 17.7875 23.6866 17.5875 23.5866C17.3941 23.4866 17.0841 23.3766 16.6575 23.2566C16.2441 23.1432 15.9075 23.0332 15.6475 22.9266C15.3875 22.8199 15.1608 22.6566 14.9675 22.4366C14.7808 22.2166 14.6875 21.9266 14.6875 21.5666C14.6875 21.2732 14.7741 21.0066 14.9475 20.7666C15.1208 20.5199 15.3675 20.3266 15.6875 20.1866C16.0141 20.0466 16.3875 19.9766 16.8075 19.9766C17.4341 19.9766 17.9375 20.1366 18.3175 20.4566C18.7041 20.7699 18.9108 21.1999 18.9375 21.7466H17.7975C17.7775 21.4999 17.6775 21.3032 17.4975 21.1566C17.3175 21.0099 17.0741 20.9366 16.7675 20.9366C16.4675 20.9366 16.2375 20.9932 16.0775 21.1066C15.9175 21.2199 15.8375 21.3699 15.8375 21.5566C15.8375 21.7032 15.8908 21.8266 15.9975 21.9266C16.1041 22.0266 16.2341 22.1066 16.3875 22.1666C16.5408 22.2199 16.7675 22.2899 17.0675 22.3766C17.4675 22.4832 17.7941 22.5932 18.0475 22.7066C18.3075 22.8132 18.5308 22.9732 18.7175 23.1866C18.9041 23.3999 19.0008 23.6832 19.0075 24.0366C19.0075 24.3499 18.9208 24.6299 18.7475 24.8766C18.5741 25.1232 18.3275 25.3166 18.0075 25.4566C17.6941 25.5966 17.3241 25.6666 16.8975 25.6666ZM22.5993 22.7866L24.3793 25.5766H23.0893L21.8993 23.7066L20.7793 25.5766H19.5893L21.3693 22.8666L19.5893 20.0666H20.8793L22.0693 21.9366L23.1893 20.0666H24.3793L22.5993 22.7866Z" fill="white"/>
</svg>
